<svg width="119" height="42" viewBox="0 0 119 42" fill="none" xmlns="http://www.w3.org/2000/svg">
<g clip-path="url(#clip0_24350_5877)">
<path d="M46.4895 27.616V18.6881H57.6071C59.5285 19.1953 60.7253 20.7785 60.7253 23.038C60.7253 25.8664 59.0052 27.616 56.2305 27.616H46.4895ZM46.4895 4.7073H55.1088C57.8433 4.7073 59.6036 6.48107 59.6036 9.23967C59.6036 11 58.9354 12.3444 57.7601 13.1119H46.4895V4.7073ZM40.9106 14.3758V31.4668L33.3298 18.8679C36.5285 18.8572 39.3408 17.062 40.9106 14.3785V14.3758ZM18.0717 0.0273438H23.0898C23.0898 7.10631 23.0898 14.1826 23.0898 21.2616C22.5262 27.5006 17.5565 32.4033 11.5187 32.4033C5.48088 32.4033 0.913633 27.9622 0.046875 21.9942H5.52382C6.26982 24.9379 8.6903 27.0337 11.516 27.0337C14.9669 27.0337 17.7711 23.9048 17.7711 20.0808V5.39695H5.48357V0.0273438H18.0717ZM66.3498 23.5532C66.3498 19.8957 64.4285 16.9009 61.4552 15.7175C63.8139 14.5046 65.2281 11.9526 65.2281 8.77274C65.2281 3.62318 61.4632 0.0273438 56.0614 0.0273438H40.9106V4.51677C39.3381 1.82526 36.5124 0.0273438 33.3084 0.0273438H24.3456V5.39695H33.3084C35.2673 5.39695 36.8666 7.21902 36.8666 9.44629C36.8666 11.6736 35.27 13.4956 33.3084 13.4956H24.5254L24.5335 18.8652H26.8224L34.8916 32.296H57.1751C62.5769 32.296 66.3498 28.7001 66.3498 23.5532Z" fill="#007C33"/>
<path d="M74.5197 9.31734C73.865 9.31734 73.2988 9.1939 72.8238 8.94433C72.3461 8.69477 71.9812 8.33519 71.7236 7.8629C71.466 7.39061 71.3398 6.81367 71.3398 6.13743V5.70003H73.2558V6.24477C73.2558 6.62314 73.3685 6.92906 73.5913 7.15983C73.8167 7.39329 74.1253 7.50868 74.5197 7.50868C74.9142 7.50868 75.2121 7.39329 75.4348 7.15983C75.6602 6.92637 75.7729 6.62314 75.7729 6.24477V1.91635H77.7131V6.13743C77.7131 6.81635 77.5843 7.39061 77.3293 7.8629C77.0717 8.33519 76.7068 8.69746 76.2291 8.94433C75.7515 9.19121 75.1826 9.31734 74.5197 9.31734ZM72.3435 2.15249V0.461914H77.7104V2.15249H72.3435Z" fill="#4D4D4D"/>
<path d="M81.7966 9.31859C81.2303 9.31859 80.7258 9.23004 80.2831 9.05293C79.843 8.87582 79.47 8.63431 79.1668 8.32571C78.8635 8.01711 78.6328 7.66558 78.4744 7.26843C78.3161 6.87127 78.2383 6.44997 78.2383 6.00988V5.73885C78.2383 5.29072 78.3188 4.86136 78.4798 4.45616C78.6408 4.05096 78.8769 3.69406 79.1882 3.38546C79.4995 3.07686 79.8752 2.83535 80.318 2.65824C80.7581 2.48113 81.2518 2.39258 81.7966 2.39258C82.3413 2.39258 82.8538 2.48113 83.2912 2.65824C83.7286 2.83535 84.1016 3.07686 84.4076 3.38546C84.7135 3.69406 84.9523 4.04827 85.116 4.45616C85.2824 4.86136 85.3629 5.29072 85.3629 5.73885V6.00988C85.3629 6.45265 85.2851 6.87127 85.1267 7.26843C84.9684 7.66558 84.7376 8.01979 84.4344 8.32571C84.1312 8.63431 83.7582 8.87582 83.3181 9.05293C82.8753 9.23004 82.3681 9.31859 81.7939 9.31859H81.7966ZM81.7966 7.72193C82.1669 7.72193 82.4755 7.64411 82.7197 7.48579C82.9639 7.32746 83.1517 7.10742 83.2805 6.82297C83.4093 6.53852 83.4764 6.22456 83.4764 5.87839C83.4764 5.50808 83.4093 5.18338 83.2751 4.9043C83.141 4.62522 82.9504 4.40249 82.7009 4.23612C82.4513 4.06974 82.1508 3.98655 81.7966 3.98655C81.4423 3.98655 81.1498 4.06974 80.8976 4.23612C80.6453 4.40249 80.4548 4.62522 80.3233 4.9043C80.1945 5.18338 80.1274 5.50808 80.1274 5.87839C80.1274 6.22456 80.1892 6.54121 80.318 6.82297C80.4441 7.10742 80.6319 7.32746 80.8842 7.48579C81.1364 7.64411 81.4396 7.72193 81.7939 7.72193H81.7966Z" fill="#4D4D4D"/>
<path d="M85.3867 4.0108V2.6154H88.1426V4.0108H85.3867ZM86.9834 1.97673C86.6292 1.97673 86.3662 1.8855 86.1971 1.69765C86.0281 1.5125 85.9422 1.27903 85.9422 0.994587C85.9422 0.710141 86.0281 0.463262 86.1971 0.278103C86.3662 0.0929446 86.6292 -0.000976562 86.9834 -0.000976562C87.3376 -0.000976562 87.6006 0.0929446 87.7696 0.278103C87.9387 0.463262 88.0246 0.70209 88.0246 0.994587C88.0246 1.28708 87.9387 1.5125 87.7696 1.69765C87.6006 1.88281 87.3376 1.97673 86.9834 1.97673ZM86.2508 9.09327V2.6154H88.1426V9.09327H86.2508Z" fill="#4D4D4D"/>
<path d="M89.1328 9.09222V2.61435H90.6356V5.39173H90.5282C90.5282 4.72891 90.6141 4.1788 90.7831 3.73603C90.9522 3.29594 91.2098 2.9632 91.5587 2.74315C91.9048 2.52311 92.3261 2.41309 92.8226 2.41309H92.9058C93.6625 2.41309 94.2394 2.65996 94.6393 3.15104C95.0364 3.64479 95.235 4.3908 95.235 5.39173V9.09222H93.3432V5.28439C93.3432 4.93822 93.2412 4.65378 93.0346 4.43373C92.8306 4.21369 92.5542 4.10367 92.2081 4.10367C91.8619 4.10367 91.5667 4.21637 91.352 4.44178C91.1347 4.66719 91.0273 4.95969 91.0273 5.32196V9.09222H89.1355H89.1328Z" fill="#4D4D4D"/>
<path d="M95.3086 3.99683V2.61485H99.9429V3.99683H95.3086ZM99.0306 9.17591C98.3758 9.17591 97.8471 9.09541 97.4473 8.9344C97.0475 8.77339 96.7523 8.49968 96.5671 8.11863C96.382 7.73758 96.2881 7.21699 96.2881 6.5649V0.865234H98.0511V6.63468C98.0511 6.94327 98.1316 7.17673 98.2926 7.33774C98.4536 7.49875 98.6844 7.57925 98.9849 7.57925H99.9429V9.17591H99.0332H99.0306Z" fill="#4D4D4D"/>
<path d="M71.332 20.5843V11.8818H73.2722V20.5843H71.332ZM72.7516 17.8177V16.2934H74.8796C75.164 16.2934 75.4109 16.2371 75.6175 16.1217C75.8268 16.0063 75.9878 15.8453 76.1032 15.636C76.2159 15.4267 76.275 15.1852 76.275 14.9088C76.275 14.6324 76.2186 14.3909 76.1032 14.1816C75.9878 13.9723 75.8268 13.8112 75.6175 13.6959C75.4082 13.5805 75.1613 13.5241 74.8796 13.5241H72.7516V11.8818H74.7266C75.4431 11.8818 76.0657 11.9892 76.5943 12.2065C77.1229 12.4239 77.5281 12.7432 77.8126 13.1699C78.097 13.5966 78.2393 14.1306 78.2393 14.7773V14.9651C78.2393 15.6038 78.0944 16.1324 77.8072 16.5564C77.5201 16.9777 77.1149 17.2944 76.5889 17.501C76.0657 17.7103 75.4431 17.815 74.7266 17.815H72.7516V17.8177ZM76.5701 20.5843L74.0396 16.8731H76.1676L78.8162 20.5843H76.5701Z" fill="#4D4D4D"/>
<path d="M81.9576 20.8054C81.4048 20.8054 80.9191 20.7115 80.4978 20.521C80.0765 20.3304 79.7249 20.0782 79.4459 19.7589C79.1668 19.4395 78.9521 19.0799 78.8072 18.6828C78.6623 18.2856 78.5898 17.8777 78.5898 17.4591V17.223C78.5898 16.7909 78.6623 16.375 78.8072 15.9752C78.9521 15.578 79.1641 15.2211 79.4405 14.9045C79.7169 14.5905 80.0604 14.3383 80.4736 14.1531C80.8869 13.9679 81.3592 13.874 81.8878 13.874C82.5802 13.874 83.1651 14.0297 83.6428 14.3409C84.1205 14.6522 84.4854 15.0574 84.7377 15.5592C84.9899 16.061 85.116 16.6058 85.116 17.1961V17.8348H79.3815V16.7587H83.9675L83.353 17.2552C83.353 16.8688 83.2966 16.5387 83.1866 16.2623C83.0766 15.9859 82.9129 15.7766 82.6955 15.629C82.4782 15.4841 82.2098 15.4116 81.8851 15.4116C81.5604 15.4116 81.2733 15.4868 81.0452 15.6371C80.8171 15.7873 80.6427 16.0047 80.5246 16.2918C80.4065 16.579 80.3475 16.9332 80.3475 17.3491C80.3475 17.7355 80.4039 18.0736 80.5139 18.3608C80.6239 18.6479 80.7983 18.8706 81.0345 19.029C81.2706 19.1873 81.5792 19.2651 81.9576 19.2651C82.3038 19.2651 82.5882 19.198 82.8082 19.0638C83.0283 18.9297 83.1786 18.7633 83.2564 18.5674H84.9953C84.9013 19.0021 84.7162 19.3885 84.4398 19.7267C84.1634 20.0648 83.8172 20.3304 83.3986 20.5183C82.98 20.7061 82.4996 20.8027 81.9549 20.8027L81.9576 20.8054Z" fill="#4D4D4D"/>
<path d="M86.7917 20.5824L84.8516 14.1045H86.8024L88.6245 20.5824H86.7917ZM87.3821 20.5824V19.0099H89.2846V20.5824H87.3821ZM88.0798 20.5824L89.6523 14.1045H91.4717L89.7918 20.5824H88.0771H88.0798Z" fill="#4D4D4D"/>
<path d="M94.649 20.8054C94.0962 20.8054 93.6105 20.7115 93.1892 20.521C92.7679 20.3304 92.4164 20.0782 92.1373 19.7589C91.8582 19.4395 91.6435 19.0799 91.4986 18.6828C91.3537 18.2856 91.2812 17.8777 91.2812 17.4591V17.223C91.2812 16.7909 91.3537 16.375 91.4986 15.9752C91.6435 15.578 91.8555 15.2211 92.1319 14.9045C92.4083 14.5905 92.7518 14.3383 93.165 14.1531C93.5783 13.9679 94.0506 13.874 94.5792 13.874C95.2716 13.874 95.8566 14.0297 96.3342 14.3409C96.8119 14.6522 97.1768 15.0574 97.4291 15.5592C97.6813 16.061 97.8074 16.6058 97.8074 17.1961V17.8348H92.0729V16.7587H96.6589L96.0444 17.2552C96.0444 16.8688 95.988 16.5387 95.878 16.2623C95.768 15.9859 95.6043 15.7766 95.387 15.629C95.1696 15.4841 94.9012 15.4116 94.5765 15.4116C94.2518 15.4116 93.9647 15.4868 93.7366 15.6371C93.5085 15.7873 93.3341 16.0047 93.216 16.2918C93.098 16.579 93.0389 16.9332 93.0389 17.3491C93.0389 17.7355 93.0953 18.0736 93.2053 18.3608C93.3153 18.6479 93.4897 18.8706 93.7259 19.029C93.962 19.1873 94.2706 19.2651 94.649 19.2651C94.9952 19.2651 95.2796 19.198 95.4997 19.0638C95.7197 18.9297 95.87 18.7633 95.9478 18.5674H97.6867C97.5927 19.0021 97.4076 19.3885 97.1312 19.7267C96.8548 20.0648 96.5086 20.3304 96.09 20.5183C95.6714 20.7061 95.1911 20.8027 94.6463 20.8027L94.649 20.8054Z" fill="#4D4D4D"/>
<path d="M98.3164 20.5825V14.1046H99.8191V16.882H99.7118C99.7118 16.2191 99.7977 15.669 99.9667 15.2263C100.136 14.7862 100.393 14.4534 100.742 14.2334C101.088 14.0133 101.51 13.9033 102.006 13.9033H102.089C102.846 13.9033 103.423 14.1502 103.823 14.6413C104.22 15.135 104.419 15.881 104.419 16.882V20.5825H102.527V16.7746C102.527 16.4285 102.425 16.144 102.218 15.924C102.014 15.7039 101.738 15.5939 101.392 15.5939C101.045 15.5939 100.75 15.7066 100.536 15.932C100.318 16.1574 100.211 16.4499 100.211 16.8122V20.5825H98.3191H98.3164Z" fill="#4D4D4D"/>
<path d="M107.458 20.7844C106.709 20.7844 106.135 20.5428 105.733 20.0571C105.33 19.5714 105.129 18.8415 105.129 17.8648V14.1052H107.021V17.9587C107.021 18.3048 107.12 18.5812 107.316 18.7852C107.512 18.9891 107.777 19.0938 108.108 19.0938C108.438 19.0938 108.722 18.9864 108.934 18.7744C109.146 18.5625 109.253 18.2726 109.253 17.9104V14.1025H111.145V20.5804H109.642V17.8487H109.771C109.771 18.5034 109.685 19.0482 109.516 19.4856C109.347 19.923 109.098 20.2477 108.765 20.4597C108.435 20.6717 108.024 20.779 107.536 20.779H107.453L107.458 20.7844Z" fill="#4D4D4D"/>
<path d="M115.11 20.8054C114.557 20.8054 114.071 20.7115 113.65 20.521C113.229 20.3304 112.877 20.0782 112.598 19.7589C112.319 19.4395 112.104 19.0799 111.96 18.6828C111.815 18.2856 111.742 17.8777 111.742 17.4591V17.223C111.742 16.7909 111.815 16.375 111.96 15.9752C112.104 15.578 112.316 15.2211 112.593 14.9045C112.869 14.5905 113.213 14.3383 113.626 14.1531C114.039 13.9679 114.512 13.874 115.04 13.874C115.732 13.874 116.317 14.0297 116.795 14.3409C117.273 14.6522 117.638 15.0574 117.89 15.5592C118.142 16.061 118.268 16.6058 118.268 17.1961V17.8348H112.534V16.7587H117.12L116.505 17.2552C116.505 16.8688 116.449 16.5387 116.339 16.2623C116.229 15.9859 116.065 15.7766 115.848 15.629C115.631 15.4841 115.362 15.4116 115.037 15.4116C114.713 15.4116 114.426 15.4868 114.198 15.6371C113.969 15.7873 113.795 16.0047 113.677 16.2918C113.559 16.579 113.5 16.9332 113.5 17.3491C113.5 17.7355 113.556 18.0736 113.666 18.3608C113.776 18.6479 113.951 18.8706 114.187 19.029C114.423 19.1873 114.732 19.2651 115.11 19.2651C115.456 19.2651 115.741 19.198 115.961 19.0638C116.181 18.9297 116.331 18.7633 116.409 18.5674H118.148C118.054 19.0021 117.869 19.3885 117.592 19.7267C117.316 20.0648 116.97 20.3304 116.551 20.5183C116.132 20.7061 115.652 20.8027 115.107 20.8027L115.11 20.8054Z" fill="#4D4D4D"/>
<path d="M71.332 32.1297V23.3682H73.2239V32.1297H71.332ZM72.9877 28.1474V26.9882H74.689C75.0594 26.9882 75.3277 26.8942 75.4941 26.7037C75.6604 26.5132 75.7436 26.2636 75.7436 25.947C75.7436 25.6169 75.6604 25.3566 75.4941 25.1661C75.3277 24.9756 75.0594 24.8816 74.689 24.8816H72.9877V23.3682H74.571C75.5639 23.3682 76.326 23.5775 76.86 23.9934C77.3913 24.412 77.6569 25.0051 77.6569 25.7779V25.955C77.6569 26.4917 77.5201 26.9211 77.2491 27.2431C76.978 27.5678 76.6104 27.7959 76.1488 27.9354C75.6873 28.0723 75.1613 28.142 74.571 28.142H72.9877V28.1474ZM72.9877 32.1297V30.6162H75.0084C75.3706 30.6162 75.6417 30.5223 75.8241 30.3317C76.0066 30.1412 76.0952 29.8756 76.0952 29.5267C76.0952 29.1779 76.0039 28.9149 75.8241 28.7297C75.6417 28.5446 75.3706 28.4506 75.0084 28.4506H72.9877V27.2807H74.9145C75.5129 27.2807 76.0442 27.3531 76.5111 27.5007C76.9753 27.6456 77.343 27.8817 77.6113 28.2038C77.8797 28.5285 78.0138 28.9632 78.0138 29.516V29.6823C78.0138 30.1949 77.8958 30.635 77.6596 30.9999C77.4235 31.3676 77.0773 31.6466 76.6184 31.8399C76.1623 32.0331 75.5934 32.1297 74.9171 32.1297H72.9904H72.9877Z" fill="#4D4D4D"/>
<path d="M82.152 32.2961C81.5858 32.2961 81.0813 32.2076 80.6385 32.0305C80.1985 31.8534 79.8255 31.6118 79.5222 31.3032C79.219 30.9947 78.9882 30.6431 78.8299 30.246C78.6716 29.8488 78.5938 29.4275 78.5938 28.9874V28.7164C78.5938 28.2683 78.6743 27.8389 78.8353 27.4337C78.9963 27.0285 79.2324 26.6716 79.5437 26.363C79.855 26.0544 80.2307 25.8129 80.6734 25.6358C81.1135 25.4587 81.6073 25.3701 82.152 25.3701C82.6968 25.3701 83.2093 25.4587 83.6467 25.6358C84.0841 25.8129 84.4571 26.0544 84.763 26.363C85.0689 26.6716 85.3078 27.0258 85.4715 27.4337C85.6378 27.8389 85.7183 28.2683 85.7183 28.7164V28.9874C85.7183 29.4302 85.6405 29.8488 85.4822 30.246C85.3239 30.6431 85.0931 30.9973 84.7899 31.3032C84.4866 31.6118 84.1136 31.8534 83.6735 32.0305C83.2308 32.2076 82.7236 32.2961 82.1493 32.2961H82.152ZM82.152 30.6995C82.5223 30.6995 82.8309 30.6216 83.0751 30.4633C83.3193 30.305 83.5072 30.085 83.636 29.8005C83.7648 29.5161 83.8319 29.2021 83.8319 28.8559C83.8319 28.4856 83.7648 28.1609 83.6306 27.8818C83.4964 27.6028 83.3059 27.38 83.0563 27.2137C82.8068 27.0473 82.5062 26.9641 82.152 26.9641C81.7978 26.9641 81.5053 27.0473 81.2531 27.2137C81.0008 27.38 80.8103 27.6028 80.6788 27.8818C80.55 28.1609 80.4829 28.4856 80.4829 28.8559C80.4829 29.2021 80.5446 29.5187 80.6734 29.8005C80.7996 30.085 80.9874 30.305 81.2396 30.4633C81.4919 30.6216 81.7951 30.6995 82.1493 30.6995H82.152Z" fill="#4D4D4D"/>
<path d="M88.5353 32.2367C88.0711 32.2367 87.6632 32.1535 87.3116 31.9871C86.9601 31.8208 86.6864 31.5846 86.4905 31.2706C86.2946 30.9567 86.1953 30.5864 86.1953 30.1543C86.1953 29.682 86.3188 29.2929 86.5629 28.9897C86.8071 28.6865 87.1506 28.4611 87.5907 28.3162C88.0308 28.1712 88.5407 28.0961 89.1149 28.0961H90.4996V29.148H89.1042C88.7741 29.148 88.5192 29.2285 88.3421 29.3895C88.165 29.5505 88.0764 29.7706 88.0764 30.047C88.0764 30.3073 88.165 30.5193 88.3421 30.6803C88.5192 30.8413 88.7741 30.9218 89.1042 30.9218C89.3162 30.9218 89.5067 30.8842 89.6784 30.8091C89.8475 30.734 89.987 30.6051 90.0971 30.4254C90.2071 30.2429 90.2715 29.9906 90.2876 29.6686L90.7357 30.1409C90.6955 30.589 90.5881 30.9674 90.411 31.276C90.2339 31.5846 89.9897 31.8208 89.6784 31.9844C89.3672 32.1508 88.9861 32.234 88.538 32.234L88.5353 32.2367ZM90.6042 32.0703V30.1543H90.2849V28.0746C90.2849 27.7446 90.2071 27.495 90.0488 27.3286C89.8904 27.1623 89.6382 27.0791 89.292 27.0791C89.1176 27.0791 88.8895 27.0844 88.6051 27.0898C88.3206 27.0979 88.0308 27.1086 87.7303 27.1247C87.4297 27.1408 87.1587 27.1569 86.9145 27.173V25.5763C87.0943 25.5602 87.3089 25.5441 87.5531 25.528C87.7973 25.5119 88.0496 25.5012 88.3099 25.4932C88.5702 25.4851 88.8144 25.4824 89.0425 25.4824C89.7053 25.4824 90.2608 25.5763 90.7143 25.7669C91.1678 25.9574 91.5113 26.2418 91.7501 26.6229C91.9862 27.0066 92.1043 27.495 92.1043 28.0961V32.0676H90.6042V32.0703Z" fill="#4D4D4D"/>
<path d="M93.3516 32.0706V25.5927H94.8543V28.3701H94.8194C94.8194 27.455 95.0153 26.7493 95.4044 26.2528C95.7935 25.7564 96.3597 25.5068 97.1004 25.5068H97.3472V27.1384H96.8749C96.3544 27.1384 95.9518 27.2779 95.6701 27.557C95.3856 27.8361 95.2434 28.2413 95.2434 28.7699V32.0679H93.3516V32.0706Z" fill="#4D4D4D"/>
<path d="M100.608 32.2861C100.152 32.2861 99.7356 32.2029 99.3599 32.0392C98.9842 31.8728 98.6595 31.6421 98.3858 31.3469C98.1094 31.0517 97.9001 30.7029 97.7525 30.3003C97.6076 29.8978 97.5352 29.4658 97.5352 28.9989V28.7278C97.5352 28.2636 97.6049 27.8289 97.7418 27.4263C97.8786 27.0238 98.0799 26.6723 98.3456 26.3691C98.6085 26.0658 98.9279 25.8297 99.2982 25.6606C99.6685 25.4916 100.082 25.4057 100.541 25.4057C101.061 25.4057 101.509 25.5184 101.888 25.7438C102.266 25.9692 102.561 26.2993 102.773 26.7367C102.985 27.1741 103.103 27.7108 103.127 28.3495L102.631 27.8879V23.4414H104.534V32.0714H103.031V29.388H103.291C103.267 30.0025 103.138 30.5257 102.907 30.9605C102.674 31.3952 102.363 31.7226 101.968 31.948C101.574 32.1734 101.12 32.2861 100.608 32.2861ZM101.08 30.7002C101.373 30.7002 101.638 30.6358 101.877 30.5043C102.119 30.3755 102.312 30.1823 102.457 29.93C102.602 29.6778 102.677 29.3745 102.677 29.0203V28.5829C102.677 28.2368 102.602 27.9443 102.451 27.7081C102.301 27.472 102.105 27.2895 101.861 27.1634C101.617 27.0372 101.354 26.9728 101.069 26.9728C100.755 26.9728 100.474 27.0533 100.224 27.2144C99.9771 27.3754 99.7812 27.5954 99.639 27.8772C99.4968 28.1589 99.427 28.4809 99.427 28.8513C99.427 29.2216 99.4968 29.557 99.639 29.8334C99.7812 30.1098 99.9771 30.3218 100.229 30.4721C100.482 30.6223 100.766 30.6975 101.08 30.6975V30.7002Z" fill="#4D4D4D"/>
<path d="M3.38384 37.2041L2.7908 40.5638H2.11188L2.36681 39.1255H0.933844L0.678916 40.5638H0L0.595728 37.2041H1.26928L1.0224 38.5968H2.46073L2.70761 37.2041H3.38116H3.38384Z" fill="#4D4D4D"/>
<path d="M3.80615 38.5029C3.94838 38.2936 4.1228 38.1326 4.32943 38.0226C4.53605 37.9099 4.75073 37.8535 4.97882 37.8535C5.1774 37.8535 5.34646 37.8938 5.48332 37.9743C5.62017 38.0548 5.71946 38.1567 5.78386 38.2775L5.85095 37.8965H6.52987L6.05758 40.5638H5.37866L5.45111 40.1747C5.34646 40.3008 5.20692 40.4028 5.04054 40.486C4.87417 40.5692 4.68901 40.6094 4.49043 40.6094C4.29186 40.6094 4.12012 40.5665 3.96984 40.4779C3.81957 40.3894 3.7015 40.2659 3.61831 40.1023C3.53512 39.9412 3.49219 39.7507 3.49219 39.536C3.49219 39.4368 3.50292 39.3321 3.52171 39.2221C3.57001 38.9537 3.66661 38.7122 3.80884 38.5056L3.80615 38.5029ZM5.63359 39.0477C5.63359 38.8571 5.57724 38.7095 5.46721 38.6049C5.35719 38.5002 5.21765 38.4466 5.05128 38.4466C4.92516 38.4466 4.8044 38.4761 4.68901 38.5378C4.57094 38.5995 4.46897 38.6881 4.3831 38.8061C4.29723 38.9242 4.23819 39.0611 4.20867 39.2221C4.19794 39.2838 4.19525 39.3402 4.19525 39.3965C4.19525 39.5897 4.24892 39.74 4.35895 39.8527C4.46897 39.9627 4.60582 40.0191 4.7722 40.0191C4.89832 40.0191 5.01908 39.9869 5.13715 39.9251C5.25522 39.8634 5.35719 39.7722 5.44306 39.6541C5.52893 39.536 5.58529 39.3965 5.6148 39.2355C5.62822 39.1523 5.63359 39.0906 5.63359 39.053V39.0477Z" fill="#4D4D4D"/>
<path d="M8.19197 37.9926C8.34493 37.904 8.51398 37.8584 8.69378 37.8584L8.56765 38.5668H8.39055C8.19197 38.5668 8.03096 38.6098 7.91021 38.6956C7.78945 38.7815 7.70358 38.9291 7.64723 39.1384L7.39767 40.5633H6.71875L7.19104 37.896H7.86995L7.78677 38.3683C7.90216 38.2072 8.03633 38.0838 8.19197 37.9926Z" fill="#4D4D4D"/>
<path d="M13.1279 38.0843C13.2916 38.2346 13.3748 38.4492 13.3748 38.7256C13.3748 38.8276 13.3667 38.9189 13.3506 38.9994L13.0715 40.5638H12.4033L12.6636 39.0906C12.6744 39.0342 12.6771 38.9779 12.6771 38.9215C12.6771 38.7686 12.6341 38.6505 12.5483 38.5673C12.4624 38.4841 12.3416 38.4439 12.186 38.4439C12.0008 38.4439 11.8425 38.5002 11.7137 38.6103C11.5849 38.7203 11.5044 38.8813 11.4722 39.0906V39.0852L11.2065 40.5638H10.5383L10.7986 39.0906C10.8094 39.0342 10.8121 38.9779 10.8121 38.9269C10.8121 38.7686 10.7691 38.6505 10.6832 38.5673C10.5974 38.4841 10.4739 38.4439 10.3183 38.4439C10.1412 38.4439 9.99092 38.4949 9.86211 38.5995C9.73599 38.7042 9.6528 38.8518 9.61523 39.045L9.34688 40.5611H8.66797L9.14026 37.8938H9.81917L9.76014 38.2104C9.86479 38.1004 9.9936 38.0145 10.1412 37.9501C10.2888 37.8857 10.4444 37.8535 10.6081 37.8535C10.8174 37.8535 10.9945 37.8965 11.1421 37.985C11.2897 38.0736 11.3944 38.1997 11.4561 38.3634C11.5688 38.2104 11.7164 38.087 11.8962 37.9931C12.0786 37.8991 12.2665 37.8535 12.4624 37.8535C12.7441 37.8535 12.9669 37.9287 13.1306 38.0789L13.1279 38.0843Z" fill="#4D4D4D"/>
<path d="M14.295 40.4679C14.1206 40.374 13.9837 40.2425 13.8871 40.0735C13.7905 39.9044 13.7422 39.7085 13.7422 39.4858C13.7422 39.1852 13.8146 38.9088 13.9569 38.6593C14.0991 38.4097 14.295 38.2138 14.5445 38.0689C14.7941 37.924 15.0705 37.8516 15.3737 37.8516C15.6018 37.8516 15.8058 37.8999 15.9829 37.9938C16.16 38.0877 16.2995 38.2219 16.3961 38.3909C16.4927 38.56 16.5437 38.7559 16.5437 38.9786C16.5437 39.2845 16.4713 39.5609 16.3264 39.8078C16.1815 40.0547 15.9829 40.2506 15.7306 40.3928C15.4784 40.535 15.1993 40.6075 14.8961 40.6075C14.668 40.6075 14.4667 40.5619 14.2923 40.4679H14.295ZM15.4274 39.891C15.5589 39.7971 15.6609 39.6736 15.736 39.5207C15.8085 39.3677 15.846 39.204 15.846 39.035C15.846 38.8418 15.7924 38.6942 15.685 38.5895C15.5777 38.4849 15.4408 38.4339 15.2771 38.4339C15.1134 38.4339 14.9685 38.4795 14.8424 38.5734C14.7163 38.6673 14.617 38.7908 14.5472 38.9464C14.4775 39.1021 14.4426 39.2657 14.4426 39.4402C14.4426 39.6307 14.4936 39.7756 14.5928 39.8776C14.6948 39.9795 14.8263 40.0305 14.99 40.0305C15.1537 40.0305 15.2959 39.9849 15.4274 39.891Z" fill="#4D4D4D"/>
<path d="M19.3908 38.0809C19.5491 38.2312 19.6296 38.4431 19.6296 38.7195C19.6296 38.8215 19.6216 38.9154 19.6055 38.9986L19.3264 40.5631H18.6582L18.9185 39.0899C18.9292 39.0335 18.9319 38.9772 18.9319 38.9208C18.9319 38.7598 18.889 38.639 18.8031 38.5558C18.7172 38.4727 18.5965 38.4297 18.4409 38.4297C18.2611 38.4297 18.1081 38.4834 17.982 38.5907C17.8559 38.6981 17.77 38.8537 17.7297 39.055L17.4641 40.5631H16.7852L17.2574 37.8957H17.9364L17.8773 38.2231C17.9873 38.1104 18.1162 38.0218 18.2664 37.9548C18.4167 37.8877 18.575 37.8555 18.7387 37.8555C19.0151 37.8555 19.2325 37.9306 19.3908 38.0782V38.0809Z" fill="#4D4D4D"/>
<path d="M21.1082 37.8966L20.6359 40.564H19.957L20.4293 37.8966H21.1082ZM20.5742 37.4887C20.5098 37.427 20.4776 37.3519 20.4776 37.2579C20.4776 37.1291 20.5259 37.0191 20.6252 36.9279C20.7218 36.8366 20.8372 36.791 20.9687 36.791C21.0707 36.791 21.1539 36.8205 21.2183 36.8823C21.2827 36.944 21.3149 37.0191 21.3149 37.113C21.3149 37.2418 21.2666 37.3519 21.17 37.4431C21.0734 37.5343 20.9606 37.5799 20.8292 37.5799C20.7218 37.5799 20.6386 37.5504 20.5742 37.4887Z" fill="#4D4D4D"/>
<path d="M22.0218 40.0101H23.2052L23.1032 40.5629H21.1523L21.2489 40.0181L22.6873 38.4483H21.528L21.6246 37.8955H23.5594L23.4682 38.4403L22.0191 40.0101H22.0218Z" fill="#4D4D4D"/>
<path d="M26.0819 38.1353C26.2804 38.3231 26.3797 38.5754 26.3797 38.8947C26.3797 38.9967 26.3717 39.0879 26.3556 39.1684C26.3368 39.265 26.3153 39.3482 26.2939 39.418H24.343C24.3403 39.4394 24.3376 39.4716 24.3376 39.5146C24.3376 39.681 24.3859 39.8124 24.4852 39.9064C24.5818 40.0003 24.7133 40.0486 24.8716 40.0486C25.0058 40.0486 25.1239 40.0191 25.2205 39.96C25.3171 39.901 25.3976 39.8232 25.4593 39.7266H26.1865C26.0684 39.9842 25.8833 40.1935 25.6364 40.3599C25.3868 40.5262 25.1051 40.6067 24.7911 40.6067C24.4503 40.6067 24.1793 40.5101 23.9727 40.3169C23.766 40.1237 23.6641 39.8634 23.6641 39.5334C23.6641 39.4368 23.6748 39.3348 23.6936 39.2301C23.7419 38.9537 23.8412 38.7122 23.9888 38.5029C24.139 38.2936 24.3242 38.1326 24.5442 38.0226C24.767 37.9099 25.0085 37.8535 25.2715 37.8535C25.6123 37.8535 25.8806 37.9474 26.0792 38.1353H26.0819ZM25.6954 38.8974C25.6954 38.7444 25.6445 38.6237 25.5452 38.5351C25.4459 38.4492 25.3144 38.4063 25.1561 38.4063C24.987 38.4063 24.8341 38.46 24.6999 38.5673C24.5657 38.6747 24.4691 38.8222 24.4154 39.0074H25.6874C25.6928 38.9564 25.6981 38.9188 25.6981 38.8974H25.6954Z" fill="#4D4D4D"/>
<path d="M26.6357 40.5073C26.5713 40.4455 26.5391 40.3704 26.5391 40.2765C26.5391 40.1477 26.5874 40.0377 26.6867 39.9464C26.7859 39.8552 26.8986 39.8096 27.0301 39.8096C27.1348 39.8096 27.2207 39.8391 27.2824 39.8981C27.3441 39.9572 27.3763 40.035 27.3763 40.1316C27.3763 40.2604 27.328 40.3704 27.2314 40.4616C27.1348 40.5529 27.0221 40.5985 26.8906 40.5985C26.7859 40.5985 26.7001 40.569 26.6357 40.5073Z" fill="#4D4D4D"/>
<path d="M29.968 40.4152C29.7506 40.2944 29.5842 40.1281 29.4662 39.9134C29.3481 39.6987 29.2891 39.4545 29.2891 39.1781C29.2891 38.7917 29.3749 38.4455 29.5467 38.1369C29.7184 37.8283 29.9546 37.5868 30.2605 37.4124C30.5637 37.238 30.9045 37.1494 31.2829 37.1494C31.5673 37.1494 31.8196 37.2085 32.0369 37.3265C32.2543 37.4446 32.4207 37.611 32.5414 37.8256C32.6595 38.0376 32.7185 38.2818 32.7185 38.5555C32.7185 38.9473 32.6327 39.2962 32.4636 39.6048C32.2945 39.9134 32.0557 40.1549 31.7498 40.3293C31.4439 40.5037 31.1004 40.5923 30.7193 40.5923C30.4376 40.5923 30.188 40.5333 29.9707 40.4125L29.968 40.4152ZM31.4519 39.7926C31.6371 39.6719 31.7793 39.5055 31.8813 39.2989C31.9833 39.0922 32.0342 38.8668 32.0342 38.6226C32.0342 38.3597 31.9591 38.153 31.8115 38.0028C31.6639 37.8525 31.4573 37.7773 31.1916 37.7773C30.9528 37.7773 30.7435 37.8391 30.5583 37.9598C30.3732 38.0833 30.231 38.2469 30.129 38.4509C30.027 38.6575 29.9787 38.8802 29.9787 39.1244C29.9787 39.3874 30.0512 39.594 30.1988 39.747C30.3437 39.9 30.5503 39.9751 30.8186 39.9751C31.0601 39.9751 31.2721 39.9134 31.4573 39.7926H31.4519Z" fill="#4D4D4D"/>
<path d="M34.4115 37.977C34.5779 37.8938 34.7577 37.8535 34.9536 37.8535C35.1495 37.8535 35.3292 37.8964 35.4795 37.9823C35.6325 38.0682 35.7505 38.1889 35.8337 38.35C35.9169 38.511 35.9599 38.6988 35.9599 38.9135C35.9599 39.0128 35.9491 39.1147 35.9303 39.2221C35.882 39.4958 35.7854 39.7373 35.6405 39.9466C35.4956 40.1559 35.3212 40.3196 35.1146 40.435C34.9079 40.5504 34.6933 40.6094 34.4705 40.6094C34.2746 40.6094 34.1083 40.5692 33.9714 40.4887C33.8346 40.4082 33.7326 40.3062 33.6601 40.1854L33.3703 41.8358H32.6914L33.3837 37.8965H34.0627L33.9956 38.2802C34.1056 38.1594 34.2424 38.0575 34.4061 37.9743L34.4115 37.977ZM35.2568 39.0477C35.2568 38.8571 35.2031 38.7095 35.0931 38.6049C34.9831 38.5002 34.8435 38.4466 34.6745 38.4466C34.551 38.4466 34.433 38.4788 34.3122 38.5405C34.1941 38.6022 34.0895 38.6934 34.0036 38.8115C33.9177 38.9296 33.8587 39.0691 33.8292 39.2301C33.8158 39.3133 33.8104 39.375 33.8104 39.4126C33.8104 39.6031 33.8668 39.7507 33.9768 39.8554C34.0868 39.96 34.2263 40.0137 34.3927 40.0137C34.5188 40.0137 34.6396 39.9815 34.7577 39.9171C34.8757 39.8527 34.9804 39.7615 35.0663 39.6434C35.1521 39.5253 35.2112 39.3831 35.2407 39.2194C35.2514 39.155 35.2541 39.0986 35.2541 39.045L35.2568 39.0477Z" fill="#4D4D4D"/>
<path d="M37.1127 39.7393C37.11 39.758 37.1073 39.7849 37.1073 39.8171C37.1073 39.8815 37.1261 39.9271 37.1637 39.9539C37.2012 39.9808 37.263 39.9942 37.3488 39.9942H37.6655L37.5635 40.5631H37.1341C36.6538 40.5631 36.4123 40.3618 36.4123 39.962C36.4123 39.8842 36.4177 39.809 36.4311 39.7366L36.6565 38.4512H36.3398L36.4364 37.8984H36.7585L36.8739 37.2383H37.5528L37.4374 37.8984H38.0304L37.9338 38.4512H37.3354L37.11 39.742L37.1127 39.7393Z" fill="#4D4D4D"/>
<path d="M39.202 37.8966L38.7297 40.564H38.0508L38.5231 37.8966H39.202ZM38.668 37.4887C38.6036 37.427 38.5714 37.3519 38.5714 37.2579C38.5714 37.1291 38.6197 37.0191 38.719 36.9279C38.8156 36.8366 38.931 36.791 39.0624 36.791C39.1644 36.791 39.2476 36.8205 39.312 36.8823C39.3764 36.944 39.4086 37.0191 39.4086 37.113C39.4086 37.2418 39.3603 37.3519 39.2637 37.4431C39.1671 37.5343 39.0544 37.5799 38.9229 37.5799C38.8156 37.5799 38.7324 37.5504 38.668 37.4887Z" fill="#4D4D4D"/>
<path d="M43.8505 38.0843C44.0142 38.2346 44.0974 38.4492 44.0974 38.7256C44.0974 38.8276 44.0894 38.9189 44.0733 38.9994L43.7942 40.5638H43.126L43.3863 39.0906C43.397 39.0342 43.3997 38.9779 43.3997 38.9215C43.3997 38.7686 43.3568 38.6505 43.2709 38.5673C43.185 38.4841 43.0643 38.4439 42.9086 38.4439C42.7235 38.4439 42.5652 38.5002 42.4364 38.6103C42.3075 38.7203 42.227 38.8813 42.1948 39.0906V39.0852L41.9292 40.5638H41.261L41.5213 39.0906C41.532 39.0342 41.5347 38.9779 41.5347 38.9269C41.5347 38.7686 41.4918 38.6505 41.4059 38.5673C41.32 38.4841 41.1966 38.4439 41.041 38.4439C40.8638 38.4439 40.7136 38.4949 40.5848 38.5995C40.4586 38.7042 40.3755 38.8518 40.3379 39.045L40.0695 40.5611H39.3906L39.8629 37.8938H40.5418L40.4828 38.2104C40.5875 38.1004 40.7163 38.0145 40.8638 37.9501C41.0114 37.8857 41.1671 37.8535 41.3308 37.8535C41.5401 37.8535 41.7172 37.8965 41.8648 37.985C42.0124 38.0736 42.117 38.1997 42.1787 38.3634C42.2914 38.2104 42.439 38.087 42.6188 37.9931C42.8013 37.8991 42.9891 37.8535 43.185 37.8535C43.4668 37.8535 43.6895 37.9287 43.8532 38.0789L43.8505 38.0843Z" fill="#4D4D4D"/>
<path d="M45.5887 37.8966L45.1164 40.564H44.4375L44.9098 37.8966H45.5887ZM45.0547 37.4887C44.9903 37.427 44.9581 37.3519 44.9581 37.2579C44.9581 37.1291 45.0064 37.0191 45.1057 36.9279C45.2023 36.8366 45.3177 36.791 45.4492 36.791C45.5511 36.791 45.6343 36.8205 45.6987 36.8823C45.7631 36.944 45.7953 37.0191 45.7953 37.113C45.7953 37.2418 45.747 37.3519 45.6504 37.4431C45.5538 37.5343 45.4411 37.5799 45.3096 37.5799C45.2023 37.5799 45.1191 37.5504 45.0547 37.4887Z" fill="#4D4D4D"/>
<path d="M46.4983 40.0101H47.6818L47.5798 40.5629H45.6289L45.7255 40.0181L47.1638 38.4483H46.0046L46.1012 37.8955H48.036L47.9447 38.4403L46.4957 40.0101H46.4983Z" fill="#4D4D4D"/>
<path d="M50.5545 38.1353C50.7531 38.3231 50.8524 38.5754 50.8524 38.8947C50.8524 38.9967 50.8443 39.0879 50.8282 39.1684C50.8094 39.265 50.788 39.3482 50.7665 39.418H48.8156C48.813 39.4394 48.8103 39.4716 48.8103 39.5146C48.8103 39.681 48.8586 39.8124 48.9579 39.9064C49.0545 40.0003 49.186 40.0486 49.3443 40.0486C49.4784 40.0486 49.5965 40.0191 49.6931 39.96C49.7897 39.901 49.8702 39.8232 49.932 39.7266H50.6592C50.5411 39.9842 50.3559 40.1935 50.1091 40.3599C49.8595 40.5262 49.5777 40.6067 49.2638 40.6067C48.923 40.6067 48.6519 40.5101 48.4453 40.3169C48.2387 40.1237 48.1367 39.8634 48.1367 39.5334C48.1367 39.4368 48.1475 39.3348 48.1662 39.2301C48.2145 38.9537 48.3138 38.7122 48.4614 38.5029C48.6117 38.2936 48.7968 38.1326 49.0169 38.0226C49.2396 37.9099 49.4811 37.8535 49.7441 37.8535C50.0849 37.8535 50.3533 37.9474 50.5518 38.1353H50.5545ZM50.1681 38.8974C50.1681 38.7444 50.1171 38.6237 50.0178 38.5351C49.9185 38.4492 49.787 38.4063 49.6287 38.4063C49.4597 38.4063 49.3067 38.46 49.1725 38.5673C49.0384 38.6747 48.9418 38.8222 48.8881 39.0074H50.16C50.1654 38.9564 50.1708 38.9188 50.1708 38.8974H50.1681Z" fill="#4D4D4D"/>
<path d="M51.1083 40.5073C51.0439 40.4455 51.0117 40.3704 51.0117 40.2765C51.0117 40.1477 51.06 40.0377 51.1593 39.9464C51.2586 39.8552 51.3713 39.8096 51.5028 39.8096C51.6074 39.8096 51.6933 39.8391 51.755 39.8981C51.8168 39.9572 51.849 40.035 51.849 40.1316C51.849 40.2604 51.8007 40.3704 51.7041 40.4616C51.6074 40.5529 51.4947 40.5985 51.3633 40.5985C51.2586 40.5985 51.1727 40.569 51.1083 40.5073Z" fill="#4D4D4D"/>
<path d="M56.4924 37.2041L56.3958 37.7327H55.5049L55.0031 40.5638H54.3242L54.826 37.7327H53.9297L54.0263 37.2041H56.4924Z" fill="#4D4D4D"/>
<path d="M57.8599 37.9926C58.0129 37.904 58.182 37.8584 58.3617 37.8584L58.2356 38.5668H58.0585C57.8599 38.5668 57.6989 38.6098 57.5782 38.6956C57.4574 38.7815 57.3715 38.9291 57.3152 39.1384L57.0656 40.5633H56.3867L56.859 37.896H57.5379L57.4547 38.3683C57.5701 38.2072 57.7043 38.0838 57.8599 37.9926Z" fill="#4D4D4D"/>
<path d="M61.3262 37.8955L60.8539 40.5629H60.1803L60.2394 40.2247C60.1374 40.3401 60.0086 40.4314 59.8583 40.4958C59.708 40.5629 59.5497 40.5951 59.3807 40.5951C59.1043 40.5951 58.8869 40.5199 58.7259 40.3723C58.5649 40.2221 58.4844 40.0101 58.4844 39.7337C58.4844 39.6317 58.4924 39.5405 58.5085 39.46L58.7822 37.8955H59.4558L59.1955 39.3634C59.1848 39.4224 59.1821 39.4761 59.1821 39.5324C59.1821 39.6907 59.225 39.8115 59.3109 39.8947C59.3968 39.9806 59.5202 40.0235 59.6758 40.0235C59.8583 40.0235 60.0139 39.9671 60.1428 39.8517C60.2716 39.7364 60.3521 39.5754 60.387 39.3634L60.6472 37.8955H61.3208H61.3262Z" fill="#4D4D4D"/>
<path d="M62.0321 40.5075C61.8737 40.4404 61.7476 40.3491 61.6564 40.2337C61.5651 40.1157 61.5195 39.9815 61.5195 39.8312C61.5195 39.8098 61.5222 39.7722 61.5303 39.7212H62.185C62.1743 39.8339 62.2092 39.9251 62.287 39.9922C62.3648 40.0593 62.4722 40.0969 62.6144 40.0969C62.7432 40.0969 62.8505 40.0727 62.9337 40.0271C63.0196 39.9815 63.0625 39.9117 63.0625 39.8232C63.0625 39.7427 63.0223 39.6783 62.9444 39.63C62.8666 39.5817 62.7405 39.528 62.5714 39.4663C62.4024 39.4046 62.2602 39.3455 62.1475 39.2892C62.0348 39.2328 61.9381 39.1523 61.8576 39.0477C61.7771 38.943 61.7369 38.8142 61.7369 38.6586C61.7369 38.5029 61.7825 38.3607 61.8737 38.2399C61.965 38.1192 62.0938 38.0226 62.2575 37.9555C62.4212 37.8884 62.609 37.8535 62.821 37.8535C63.033 37.8535 63.2021 37.8884 63.355 37.9555C63.508 38.0226 63.6287 38.1165 63.7146 38.2373C63.8005 38.358 63.8434 38.4949 63.8434 38.6478C63.8434 38.6854 63.8434 38.7149 63.838 38.7337H63.2128C63.2235 38.621 63.1913 38.5324 63.1162 38.4653C63.0411 38.3983 62.9337 38.3634 62.7942 38.3634C62.6788 38.3634 62.5849 38.3875 62.5097 38.4385C62.4346 38.4895 62.3997 38.5539 62.3997 38.6398C62.3997 38.7256 62.4426 38.7927 62.5258 38.8437C62.609 38.8974 62.7378 38.9564 62.9122 39.0181C63.0867 39.0852 63.2235 39.1469 63.3282 39.2033C63.4328 39.2596 63.5241 39.3375 63.5992 39.4341C63.677 39.5307 63.7146 39.6541 63.7146 39.8017C63.7146 39.9654 63.6636 40.1076 63.5643 40.2311C63.465 40.3545 63.3282 40.4457 63.1564 40.5101C62.982 40.5745 62.7861 40.6067 62.5688 40.6067C62.3729 40.6067 62.1958 40.5745 62.0374 40.5075H62.0321Z" fill="#4D4D4D"/>
<path d="M65.0736 39.7393C65.0709 39.758 65.0683 39.7849 65.0683 39.8171C65.0683 39.8815 65.087 39.9271 65.1246 39.9539C65.1622 39.9808 65.2239 39.9942 65.3098 39.9942H65.6264L65.5244 40.5631H65.0951C64.6147 40.5631 64.3732 40.3618 64.3732 39.962C64.3732 39.8842 64.3786 39.809 64.392 39.7366L64.6174 38.4512H64.3008L64.3974 37.8984H64.7194L64.8348 37.2383H65.5137L65.3983 37.8984H65.9914L65.8948 38.4512H65.299L65.0736 39.742V39.7393Z" fill="#4D4D4D"/>
<path d="M66.0458 40.5073C65.9814 40.4455 65.9492 40.3704 65.9492 40.2765C65.9492 40.1477 65.9975 40.0377 66.0968 39.9464C66.1961 39.8552 66.3088 39.8096 66.4403 39.8096C66.5449 39.8096 66.6308 39.8391 66.6925 39.8981C66.7543 39.9572 66.7865 40.035 66.7865 40.1316C66.7865 40.2604 66.7382 40.3704 66.6416 40.4616C66.5449 40.5529 66.4322 40.5985 66.3008 40.5985C66.1961 40.5985 66.1102 40.569 66.0458 40.5073Z" fill="#4D4D4D"/>
</g>
<defs>
<clipPath id="clip0_24350_5877">
<rect width="118.26" height="41.8352" fill="white"/>
</clipPath>
</defs>
</svg>
